<svg width="32" height="24" viewBox="0 0 32 24" fill="none" xmlns="http://www.w3.org/2000/svg">
<path d="M16.7613 19.3416V23.7572H15.7264H14.5354L14.5357 19.3416H16.7613Z" fill="#4A5759"/>
<path d="M28.6515 19.8006L26.6013 16.1823C25.9719 16.5946 25.3199 16.9707 24.649 17.3085L26.6992 20.9368L28.6515 19.8006Z" fill="#4A5759"/>
<path d="M6.64808 17.3089C5.97696 16.9714 5.32518 16.5952 4.69579 16.1827L2.64563 19.8508L4.59792 20.9871L6.64808 17.3089Z" fill="#4A5759"/>
<path fill-rule="evenodd" clip-rule="evenodd" d="M22 9.3413C22 11.198 21.3151 12.9784 20.0963 14.2914C18.8771 15.6039 17.2238 16.3416 15.5002 16.3416C13.7762 16.3416 12.1229 15.604 10.9037 14.2914C9.68496 12.9784 9 11.198 9 9.3413C9 7.4851 9.68489 5.70469 10.9037 4.3917C12.1229 3.07921 13.7762 2.34155 15.5002 2.34155C17.2238 2.34155 18.8771 3.07913 20.0963 4.3917C21.315 5.70469 22 7.4851 22 9.3413Z" fill="#4A5759"/>
<path fill-rule="evenodd" clip-rule="evenodd" d="M15.7267 0.000339828C12.5501 -0.00216417 9.42803 0.842793 6.66972 2.4512C3.91114 4.05961 1.61224 6.37607 0 9.17088C1.61224 11.9656 3.91114 14.2819 6.66972 15.8903C9.42803 17.4987 12.5501 18.3436 15.7267 18.3411C18.8776 18.3609 21.9765 17.5215 24.7034 15.9092C27.4303 14.2971 29.6862 11.9709 31.2382 9.17088C29.6862 6.37059 27.4303 4.0443 24.7034 2.43233C21.9764 0.820287 18.8775 -0.0193896 15.7267 0.000339828ZM15.6193 15.5004C13.9959 15.5004 12.4389 14.8421 11.2912 13.67C10.1433 12.4978 9.49833 10.9084 9.49833 9.25066C9.49833 7.59324 10.1433 6.00349 11.2912 4.83134C12.4389 3.65947 13.9958 3.00092 15.6193 3.00092C17.2425 3.00092 18.7994 3.65948 19.9471 4.83134C21.095 6.00349 21.74 7.59324 21.74 9.25066C21.74 10.9083 21.095 12.4978 19.9471 13.67C18.7994 14.8421 17.2425 15.5004 15.6193 15.5004Z" fill="#4A5759"/>
</svg>
