<svg width="32" height="25" viewBox="0 0 32 25" fill="none" xmlns="http://www.w3.org/2000/svg">
<path d="M16.7613 0V4.41569H15.7264H14.5354L14.5357 0H16.7613Z" fill="#4A5759"/>
<path d="M28.6515 3.97725L26.6013 7.59557C25.9719 7.18324 25.3199 6.8071 24.649 6.46935L26.6992 2.84106L28.6515 3.97725Z" fill="#4A5759"/>
<path d="M6.64808 6.51921C5.97696 6.8567 5.32518 7.23289 4.69579 7.64543L2.64563 3.97732L4.59792 2.84106L6.64808 6.51921Z" fill="#4A5759"/>
<path fill-rule="evenodd" clip-rule="evenodd" d="M19.5241 15.9089C19.5241 16.9664 19.1126 17.9805 18.3804 18.7284C17.648 19.476 16.6548 19.8961 15.6194 19.8961C14.5837 19.8961 13.5905 19.476 12.8581 18.7284C12.126 17.9805 11.7145 16.9664 11.7145 15.9089C11.7145 14.8516 12.1259 13.8375 12.8581 13.0896C13.5905 12.342 14.5837 11.9219 15.6194 11.9219C16.6548 11.9219 17.648 12.342 18.3804 13.0896C19.1126 13.8375 19.5241 14.8516 19.5241 15.9089Z" fill="#4A5759"/>
<path fill-rule="evenodd" clip-rule="evenodd" d="M15.7267 6.65879C12.5501 6.65628 9.42803 7.50124 6.66972 9.10965C3.91114 10.7181 1.61224 13.0345 0 15.8293C1.61224 18.6241 3.91114 20.9403 6.66972 22.5487C9.42803 24.1571 12.5501 25.0021 15.7267 24.9996C18.8776 25.0193 21.9765 24.1799 24.7034 22.5676C27.4303 20.9556 29.6862 18.6293 31.2382 15.8293C29.6862 13.029 27.4303 10.7027 24.7034 9.09078C21.9764 7.47873 18.8775 6.63906 15.7267 6.65879ZM15.6193 22.1588C13.9959 22.1588 12.4389 21.5006 11.2912 20.3284C10.1433 19.1563 9.49833 17.5668 9.49833 15.9091C9.49833 14.2517 10.1433 12.6619 11.2912 11.4898C12.4389 10.3179 13.9958 9.65937 15.6193 9.65937C17.2425 9.65937 18.7994 10.3179 19.9471 11.4898C21.095 12.6619 21.74 14.2517 21.74 15.9091C21.74 17.5667 21.095 19.1563 19.9471 20.3284C18.7994 21.5006 17.2425 22.1588 15.6193 22.1588Z" fill="#4A5759"/>
</svg>
