<svg width="372" height="362" viewBox="0 0 372 362" fill="none" xmlns="http://www.w3.org/2000/svg">
<path d="M361 180C361 279.411 280.187 314 180.5 314C80.8126 314 0 279.411 0 180C0 80.5887 80.8126 0 180.5 0C280.187 0 361 80.5887 361 180Z" fill="#F7E1D7" fill-opacity="0.5"/>
<path d="M67.3235 253.208C66.2321 250.644 66.647 247.505 68.479 243.958C70.3091 240.415 73.5205 236.535 77.8841 232.556C86.608 224.601 99.8527 216.329 115.552 209.644C131.252 202.96 146.394 199.146 158.175 198.37C164.068 197.983 169.091 198.357 172.913 199.493C176.739 200.631 179.29 202.508 180.381 205.071C181.473 207.634 181.057 210.773 179.226 214.32C177.395 217.863 174.184 221.743 169.821 225.722C161.097 233.677 147.852 241.949 132.152 248.633C116.453 255.318 101.31 259.132 89.5295 259.907C83.637 260.295 78.6139 259.921 74.7916 258.784C70.9654 257.647 68.415 255.771 67.3235 253.208Z" fill="url(#paint0_linear_78_476)"/>
<path d="M67.3235 253.208C66.2321 250.644 66.647 247.505 68.479 243.958C70.3091 240.415 73.5205 236.535 77.8841 232.556C86.608 224.601 99.8527 216.329 115.552 209.644C131.252 202.96 146.394 199.146 158.175 198.37C164.068 197.983 169.091 198.357 172.913 199.493C176.739 200.631 179.29 202.508 180.381 205.071C181.473 207.634 181.057 210.773 179.226 214.32C177.395 217.863 174.184 221.743 169.821 225.722C161.097 233.677 147.852 241.949 132.152 248.633C116.453 255.318 101.31 259.132 89.5295 259.907C83.637 260.295 78.6139 259.921 74.7916 258.784C70.9654 257.647 68.415 255.771 67.3235 253.208Z" stroke="url(#paint1_radial_78_476)"/>
<path d="M67.3235 253.208C66.2321 250.644 66.647 247.505 68.479 243.958C70.3091 240.415 73.5205 236.535 77.8841 232.556C86.608 224.601 99.8527 216.329 115.552 209.644C131.252 202.96 146.394 199.146 158.175 198.37C164.068 197.983 169.091 198.357 172.913 199.493C176.739 200.631 179.29 202.508 180.381 205.071C181.473 207.634 181.057 210.773 179.226 214.32C177.395 217.863 174.184 221.743 169.821 225.722C161.097 233.677 147.852 241.949 132.152 248.633C116.453 255.318 101.31 259.132 89.5295 259.907C83.637 260.295 78.6139 259.921 74.7916 258.784C70.9654 257.647 68.415 255.771 67.3235 253.208Z" stroke="url(#paint2_radial_78_476)"/>
<path d="M59.0731 224.058C59.4684 226.815 61.4514 229.288 64.859 231.38C68.2631 233.47 73.0247 235.137 78.8237 236.295C90.4176 238.611 106.047 238.868 122.953 236.502C139.859 234.136 154.8 229.6 165.287 224.194C170.532 221.49 174.638 218.582 177.32 215.64C180.006 212.695 181.216 209.775 180.821 207.019C180.426 204.262 178.443 201.789 175.035 199.696C171.631 197.606 166.869 195.939 161.07 194.781C149.477 192.466 133.848 192.208 116.942 194.574C100.036 196.94 85.0943 201.476 74.6073 206.882C69.362 209.586 65.2563 212.494 62.5735 215.436C59.8879 218.382 58.678 221.302 59.0731 224.058Z" fill="url(#paint3_linear_78_476)"/>
<path d="M59.0731 224.058C59.4684 226.815 61.4514 229.288 64.859 231.38C68.2631 233.47 73.0247 235.137 78.8237 236.295C90.4176 238.611 106.047 238.868 122.953 236.502C139.859 234.136 154.8 229.6 165.287 224.194C170.532 221.49 174.638 218.582 177.32 215.64C180.006 212.695 181.216 209.775 180.821 207.019C180.426 204.262 178.443 201.789 175.035 199.696C171.631 197.606 166.869 195.939 161.07 194.781C149.477 192.466 133.848 192.208 116.942 194.574C100.036 196.94 85.0943 201.476 74.6073 206.882C69.362 209.586 65.2563 212.494 62.5735 215.436C59.8879 218.382 58.678 221.302 59.0731 224.058Z" stroke="url(#paint4_radial_78_476)"/>
<path d="M59.0731 224.058C59.4684 226.815 61.4514 229.288 64.859 231.38C68.2631 233.47 73.0247 235.137 78.8237 236.295C90.4176 238.611 106.047 238.868 122.953 236.502C139.859 234.136 154.8 229.6 165.287 224.194C170.532 221.49 174.638 218.582 177.32 215.64C180.006 212.695 181.216 209.775 180.821 207.019C180.426 204.262 178.443 201.789 175.035 199.696C171.631 197.606 166.869 195.939 161.07 194.781C149.477 192.466 133.848 192.208 116.942 194.574C100.036 196.94 85.0943 201.476 74.6073 206.882C69.362 209.586 65.2563 212.494 62.5735 215.436C59.8879 218.382 58.678 221.302 59.0731 224.058Z" stroke="url(#paint5_radial_78_476)"/>
<path d="M82.7186 279.422C81.0057 277.227 80.5974 274.083 81.4509 270.177C82.3036 266.275 84.4019 261.686 87.5862 256.704C93.9526 246.741 104.599 235.297 118.022 224.749C131.445 214.203 145.07 206.576 156.235 202.763C161.82 200.856 166.762 199.912 170.742 200.017C174.726 200.122 177.67 201.274 179.383 203.469C181.096 205.664 181.505 208.808 180.651 212.715C179.798 216.617 177.7 221.205 174.516 226.188C168.149 236.15 157.503 247.594 144.081 258.141C130.658 268.688 117.032 276.315 105.867 280.129C100.282 282.036 95.34 282.98 91.36 282.875C87.3756 282.769 84.4317 281.617 82.7186 279.422Z" fill="url(#paint6_linear_78_476)"/>
<path d="M82.7186 279.422C81.0057 277.227 80.5974 274.083 81.4509 270.177C82.3036 266.275 84.4019 261.686 87.5862 256.704C93.9526 246.741 104.599 235.297 118.022 224.749C131.445 214.203 145.07 206.576 156.235 202.763C161.82 200.856 166.762 199.912 170.742 200.017C174.726 200.122 177.67 201.274 179.383 203.469C181.096 205.664 181.505 208.808 180.651 212.715C179.798 216.617 177.7 221.205 174.516 226.188C168.149 236.15 157.503 247.594 144.081 258.141C130.658 268.688 117.032 276.315 105.867 280.129C100.282 282.036 95.34 282.98 91.36 282.875C87.3756 282.769 84.4317 281.617 82.7186 279.422Z" stroke="url(#paint7_radial_78_476)"/>
<path d="M82.7186 279.422C81.0057 277.227 80.5974 274.083 81.4509 270.177C82.3036 266.275 84.4019 261.686 87.5862 256.704C93.9526 246.741 104.599 235.297 118.022 224.749C131.445 214.203 145.07 206.576 156.235 202.763C161.82 200.856 166.762 199.912 170.742 200.017C174.726 200.122 177.67 201.274 179.383 203.469C181.096 205.664 181.505 208.808 180.651 212.715C179.798 216.617 177.7 221.205 174.516 226.188C168.149 236.15 157.503 247.594 144.081 258.141C130.658 268.688 117.032 276.315 105.867 280.129C100.282 282.036 95.34 282.98 91.36 282.875C87.3756 282.769 84.4317 281.617 82.7186 279.422Z" stroke="url(#paint8_radial_78_476)"/>
<path d="M134.917 310.268C132.392 309.096 130.595 306.484 129.573 302.619C128.552 298.757 128.327 293.717 128.888 287.83C130.011 276.061 134.266 261.02 141.402 245.512C148.538 230.004 157.186 217.003 165.383 208.518C169.483 204.274 173.451 201.18 177.041 199.458C180.635 197.735 183.78 197.417 186.305 198.589C188.831 199.762 190.629 202.373 191.651 206.239C192.671 210.101 192.897 215.141 192.335 221.028C191.213 232.797 186.957 247.837 179.822 263.345C172.686 278.853 164.038 291.855 155.84 300.34C151.74 304.584 147.772 307.678 144.182 309.4C140.588 311.123 137.443 311.441 134.917 310.268Z" fill="url(#paint9_linear_78_476)"/>
<path d="M134.917 310.268C132.392 309.096 130.595 306.484 129.573 302.619C128.552 298.757 128.327 293.717 128.888 287.83C130.011 276.061 134.266 261.02 141.402 245.512C148.538 230.004 157.186 217.003 165.383 208.518C169.483 204.274 173.451 201.18 177.041 199.458C180.635 197.735 183.78 197.417 186.305 198.589C188.831 199.762 190.629 202.373 191.651 206.239C192.671 210.101 192.897 215.141 192.335 221.028C191.213 232.797 186.957 247.837 179.822 263.345C172.686 278.853 164.038 291.855 155.84 300.34C151.74 304.584 147.772 307.678 144.182 309.4C140.588 311.123 137.443 311.441 134.917 310.268Z" stroke="url(#paint10_radial_78_476)"/>
<path d="M134.917 310.268C132.392 309.096 130.595 306.484 129.573 302.619C128.552 298.757 128.327 293.717 128.888 287.83C130.011 276.061 134.266 261.02 141.402 245.512C148.538 230.004 157.186 217.003 165.383 208.518C169.483 204.274 173.451 201.18 177.041 199.458C180.635 197.735 183.78 197.417 186.305 198.589C188.831 199.762 190.629 202.373 191.651 206.239C192.671 210.101 192.897 215.141 192.335 221.028C191.213 232.797 186.957 247.837 179.822 263.345C172.686 278.853 164.038 291.855 155.84 300.34C151.74 304.584 147.772 307.678 144.182 309.4C140.588 311.123 137.443 311.441 134.917 310.268Z" stroke="url(#paint11_radial_78_476)"/>
<path d="M226.195 311.099C228.72 309.926 230.517 307.315 231.539 303.449C232.56 299.587 232.785 294.547 232.223 288.66C231.101 276.891 226.845 261.85 219.71 246.343C212.574 230.835 203.926 217.834 195.729 209.348C191.628 205.104 187.661 202.01 184.071 200.289C180.477 198.565 177.332 198.248 174.807 199.42C172.281 200.592 170.483 203.204 169.461 207.07C168.44 210.932 168.215 215.972 168.777 221.859C169.899 233.628 174.155 248.668 181.29 264.176C188.426 279.684 197.074 292.686 205.272 301.171C209.372 305.415 213.34 308.509 216.93 310.23C220.524 311.954 223.669 312.271 226.195 311.099Z" fill="url(#paint12_linear_78_476)"/>
<path d="M226.195 311.099C228.72 309.926 230.517 307.315 231.539 303.449C232.56 299.587 232.785 294.547 232.223 288.66C231.101 276.891 226.845 261.85 219.71 246.343C212.574 230.835 203.926 217.834 195.729 209.348C191.628 205.104 187.661 202.01 184.071 200.289C180.477 198.565 177.332 198.248 174.807 199.42C172.281 200.592 170.483 203.204 169.461 207.07C168.44 210.932 168.215 215.972 168.777 221.859C169.899 233.628 174.155 248.668 181.29 264.176C188.426 279.684 197.074 292.686 205.272 301.171C209.372 305.415 213.34 308.509 216.93 310.23C220.524 311.954 223.669 312.271 226.195 311.099Z" stroke="url(#paint13_radial_78_476)"/>
<path d="M226.195 311.099C228.72 309.926 230.517 307.315 231.539 303.449C232.56 299.587 232.785 294.547 232.223 288.66C231.101 276.891 226.845 261.85 219.71 246.343C212.574 230.835 203.926 217.834 195.729 209.348C191.628 205.104 187.661 202.01 184.071 200.289C180.477 198.565 177.332 198.248 174.807 199.42C172.281 200.592 170.483 203.204 169.461 207.07C168.44 210.932 168.215 215.972 168.777 221.859C169.899 233.628 174.155 248.668 181.29 264.176C188.426 279.684 197.074 292.686 205.272 301.171C209.372 305.415 213.34 308.509 216.93 310.23C220.524 311.954 223.669 312.271 226.195 311.099Z" stroke="url(#paint14_radial_78_476)"/>
<path d="M292.373 253.207C293.465 250.644 293.05 247.504 291.218 243.958C289.388 240.415 286.176 236.534 281.813 232.555C273.089 224.6 259.844 216.328 244.145 209.644C228.445 202.959 213.303 199.145 201.522 198.37C195.629 197.982 190.606 198.357 186.784 199.493C182.957 200.63 180.407 202.507 179.315 205.071C178.224 207.634 178.639 210.773 180.471 214.319C182.301 217.862 185.513 221.743 189.876 225.721C198.6 233.676 211.845 241.949 227.544 248.633C243.244 255.317 258.386 259.132 270.167 259.907C276.06 260.295 281.083 259.92 284.905 258.784C288.731 257.647 291.282 255.77 292.373 253.207Z" fill="url(#paint15_linear_78_476)"/>
<path d="M292.373 253.207C293.465 250.644 293.05 247.504 291.218 243.958C289.388 240.415 286.176 236.534 281.813 232.555C273.089 224.6 259.844 216.328 244.145 209.644C228.445 202.959 213.303 199.145 201.522 198.37C195.629 197.982 190.606 198.357 186.784 199.493C182.957 200.63 180.407 202.507 179.315 205.071C178.224 207.634 178.639 210.773 180.471 214.319C182.301 217.862 185.513 221.743 189.876 225.721C198.6 233.676 211.845 241.949 227.544 248.633C243.244 255.317 258.386 259.132 270.167 259.907C276.06 260.295 281.083 259.92 284.905 258.784C288.731 257.647 291.282 255.77 292.373 253.207Z" stroke="url(#paint16_radial_78_476)"/>
<path d="M292.373 253.207C293.465 250.644 293.05 247.504 291.218 243.958C289.388 240.415 286.176 236.534 281.813 232.555C273.089 224.6 259.844 216.328 244.145 209.644C228.445 202.959 213.303 199.145 201.522 198.37C195.629 197.982 190.606 198.357 186.784 199.493C182.957 200.63 180.407 202.507 179.315 205.071C178.224 207.634 178.639 210.773 180.471 214.319C182.301 217.862 185.513 221.743 189.876 225.721C198.6 233.676 211.845 241.949 227.544 248.633C243.244 255.317 258.386 259.132 270.167 259.907C276.06 260.295 281.083 259.92 284.905 258.784C288.731 257.647 291.282 255.77 292.373 253.207Z" stroke="url(#paint17_radial_78_476)"/>
<path d="M300.624 224.058C300.229 226.814 298.246 229.287 294.838 231.38C291.434 233.47 286.673 235.137 280.874 236.295C269.28 238.61 253.651 238.868 236.745 236.502C219.839 234.136 204.898 229.599 194.411 224.194C189.165 221.49 185.06 218.581 182.377 215.64C179.691 212.695 178.481 209.775 178.876 207.018C179.271 204.262 181.255 201.788 184.662 199.696C188.066 197.606 192.828 195.939 198.627 194.781C210.221 192.465 225.849 192.208 242.755 194.574C259.661 196.94 274.603 201.476 285.09 206.882C290.335 209.586 294.441 212.494 297.124 215.436C299.809 218.381 301.019 221.302 300.624 224.058Z" fill="url(#paint18_linear_78_476)"/>
<path d="M300.624 224.058C300.229 226.814 298.246 229.287 294.838 231.38C291.434 233.47 286.673 235.137 280.874 236.295C269.28 238.61 253.651 238.868 236.745 236.502C219.839 234.136 204.898 229.599 194.411 224.194C189.165 221.49 185.06 218.581 182.377 215.64C179.691 212.695 178.481 209.775 178.876 207.018C179.271 204.262 181.255 201.788 184.662 199.696C188.066 197.606 192.828 195.939 198.627 194.781C210.221 192.465 225.849 192.208 242.755 194.574C259.661 196.94 274.603 201.476 285.09 206.882C290.335 209.586 294.441 212.494 297.124 215.436C299.809 218.381 301.019 221.302 300.624 224.058Z" stroke="url(#paint19_radial_78_476)"/>
<path d="M300.624 224.058C300.229 226.814 298.246 229.287 294.838 231.38C291.434 233.47 286.673 235.137 280.874 236.295C269.28 238.61 253.651 238.868 236.745 236.502C219.839 234.136 204.898 229.599 194.411 224.194C189.165 221.49 185.06 218.581 182.377 215.64C179.691 212.695 178.481 209.775 178.876 207.018C179.271 204.262 181.255 201.788 184.662 199.696C188.066 197.606 192.828 195.939 198.627 194.781C210.221 192.465 225.849 192.208 242.755 194.574C259.661 196.94 274.603 201.476 285.09 206.882C290.335 209.586 294.441 212.494 297.124 215.436C299.809 218.381 301.019 221.302 300.624 224.058Z" stroke="url(#paint20_radial_78_476)"/>
<path d="M276.978 279.422C278.691 277.227 279.099 274.083 278.246 270.177C277.393 266.274 275.295 261.686 272.111 256.703C265.744 246.741 255.098 235.296 241.675 224.749C228.252 214.202 214.627 206.576 203.462 202.763C197.877 200.855 192.935 199.912 188.955 200.017C184.971 200.122 182.027 201.273 180.314 203.468C178.601 205.664 178.192 208.808 179.046 212.714C179.898 216.617 181.997 221.205 185.181 226.188C191.547 236.15 202.193 247.594 215.616 258.141C229.039 268.688 242.665 276.315 253.83 280.128C259.415 282.036 264.357 282.979 268.337 282.874C272.321 282.769 275.265 281.617 276.978 279.422Z" fill="url(#paint21_linear_78_476)"/>
<path d="M276.978 279.422C278.691 277.227 279.099 274.083 278.246 270.177C277.393 266.274 275.295 261.686 272.111 256.703C265.744 246.741 255.098 235.296 241.675 224.749C228.252 214.202 214.627 206.576 203.462 202.763C197.877 200.855 192.935 199.912 188.955 200.017C184.971 200.122 182.027 201.273 180.314 203.468C178.601 205.664 178.192 208.808 179.046 212.714C179.898 216.617 181.997 221.205 185.181 226.188C191.547 236.15 202.193 247.594 215.616 258.141C229.039 268.688 242.665 276.315 253.83 280.128C259.415 282.036 264.357 282.979 268.337 282.874C272.321 282.769 275.265 281.617 276.978 279.422Z" stroke="url(#paint22_radial_78_476)"/>
<path d="M276.978 279.422C278.691 277.227 279.099 274.083 278.246 270.177C277.393 266.274 275.295 261.686 272.111 256.703C265.744 246.741 255.098 235.296 241.675 224.749C228.252 214.202 214.627 206.576 203.462 202.763C197.877 200.855 192.935 199.912 188.955 200.017C184.971 200.122 182.027 201.273 180.314 203.468C178.601 205.664 178.192 208.808 179.046 212.714C179.898 216.617 181.997 221.205 185.181 226.188C191.547 236.15 202.193 247.594 215.616 258.141C229.039 268.688 242.665 276.315 253.83 280.128C259.415 282.036 264.357 282.979 268.337 282.874C272.321 282.769 275.265 281.617 276.978 279.422Z" stroke="url(#paint23_radial_78_476)"/>
<path d="M224.78 310.268C227.305 309.095 229.102 306.484 230.124 302.618C231.145 298.756 231.37 293.716 230.808 287.829C229.686 276.06 225.43 261.019 218.295 245.511C211.159 230.004 202.511 217.003 194.314 208.517C190.213 204.273 186.246 201.179 182.656 199.458C179.062 197.734 175.917 197.417 173.392 198.589C170.866 199.761 169.068 202.373 168.046 206.239C167.025 210.101 166.8 215.141 167.362 221.028C168.484 232.797 172.74 247.837 179.875 263.345C187.011 278.853 195.659 291.854 203.857 300.34C207.957 304.584 211.925 307.678 215.515 309.399C219.109 311.123 222.254 311.44 224.78 310.268Z" fill="url(#paint24_linear_78_476)"/>
<path d="M224.78 310.268C227.305 309.095 229.102 306.484 230.124 302.618C231.145 298.756 231.37 293.716 230.808 287.829C229.686 276.06 225.43 261.019 218.295 245.511C211.159 230.004 202.511 217.003 194.314 208.517C190.213 204.273 186.246 201.179 182.656 199.458C179.062 197.734 175.917 197.417 173.392 198.589C170.866 199.761 169.068 202.373 168.046 206.239C167.025 210.101 166.8 215.141 167.362 221.028C168.484 232.797 172.74 247.837 179.875 263.345C187.011 278.853 195.659 291.854 203.857 300.34C207.957 304.584 211.925 307.678 215.515 309.399C219.109 311.123 222.254 311.44 224.78 310.268Z" stroke="url(#paint25_radial_78_476)"/>
<path d="M224.78 310.268C227.305 309.095 229.102 306.484 230.124 302.618C231.145 298.756 231.37 293.716 230.808 287.829C229.686 276.06 225.43 261.019 218.295 245.511C211.159 230.004 202.511 217.003 194.314 208.517C190.213 204.273 186.246 201.179 182.656 199.458C179.062 197.734 175.917 197.417 173.392 198.589C170.866 199.761 169.068 202.373 168.046 206.239C167.025 210.101 166.8 215.141 167.362 221.028C168.484 232.797 172.74 247.837 179.875 263.345C187.011 278.853 195.659 291.854 203.857 300.34C207.957 304.584 211.925 307.678 215.515 309.399C219.109 311.123 222.254 311.44 224.78 310.268Z" stroke="url(#paint26_radial_78_476)"/>
<path d="M133.502 311.098C130.977 309.926 129.18 307.315 128.158 303.449C127.137 299.587 126.912 294.547 127.473 288.66C128.596 276.891 132.851 261.85 139.987 246.342C147.123 230.834 155.771 217.833 163.968 209.348C168.068 205.104 172.036 202.01 175.626 200.288C179.22 198.565 182.365 198.247 184.89 199.419C187.416 200.592 189.214 203.204 190.236 207.07C191.256 210.931 191.482 215.971 190.92 221.858C189.798 233.627 185.542 248.668 178.407 264.175C171.271 279.683 162.623 292.685 154.425 301.17C150.325 305.415 146.357 308.508 142.767 310.23C139.173 311.953 136.028 312.271 133.502 311.098Z" fill="url(#paint27_linear_78_476)"/>
<path d="M133.502 311.098C130.977 309.926 129.18 307.315 128.158 303.449C127.137 299.587 126.912 294.547 127.473 288.66C128.596 276.891 132.851 261.85 139.987 246.342C147.123 230.834 155.771 217.833 163.968 209.348C168.068 205.104 172.036 202.01 175.626 200.288C179.22 198.565 182.365 198.247 184.89 199.419C187.416 200.592 189.214 203.204 190.236 207.07C191.256 210.931 191.482 215.971 190.92 221.858C189.798 233.627 185.542 248.668 178.407 264.175C171.271 279.683 162.623 292.685 154.425 301.17C150.325 305.415 146.357 308.508 142.767 310.23C139.173 311.953 136.028 312.271 133.502 311.098Z" stroke="url(#paint28_radial_78_476)"/>
<path d="M133.502 311.098C130.977 309.926 129.18 307.315 128.158 303.449C127.137 299.587 126.912 294.547 127.473 288.66C128.596 276.891 132.851 261.85 139.987 246.342C147.123 230.834 155.771 217.833 163.968 209.348C168.068 205.104 172.036 202.01 175.626 200.288C179.22 198.565 182.365 198.247 184.89 199.419C187.416 200.592 189.214 203.204 190.236 207.07C191.256 210.931 191.482 215.971 190.92 221.858C189.798 233.627 185.542 248.668 178.407 264.175C171.271 279.683 162.623 292.685 154.425 301.17C150.325 305.415 146.357 308.508 142.767 310.23C139.173 311.953 136.028 312.271 133.502 311.098Z" stroke="url(#paint29_radial_78_476)"/>
<path d="M236.197 108.154C233.634 107.063 230.494 107.478 226.948 109.31C223.405 111.14 219.524 114.351 215.545 118.715C207.59 127.439 199.318 140.683 192.634 156.383C185.949 172.082 182.135 187.225 181.36 199.006C180.972 204.898 181.347 209.921 182.483 213.744C183.62 217.57 185.497 220.121 188.06 221.212C190.624 222.303 193.763 221.888 197.309 220.056C200.852 218.226 204.732 215.015 208.711 210.651C216.666 201.927 224.939 188.683 231.623 172.983C238.307 157.284 242.122 142.141 242.897 130.36C243.285 124.468 242.91 119.445 241.774 115.622C240.637 111.796 238.76 109.246 236.197 108.154Z" fill="url(#paint30_linear_78_476)"/>
<path d="M236.197 108.154C233.634 107.063 230.494 107.478 226.948 109.31C223.405 111.14 219.524 114.351 215.545 118.715C207.59 127.439 199.318 140.683 192.634 156.383C185.949 172.082 182.135 187.225 181.36 199.006C180.972 204.898 181.347 209.921 182.483 213.744C183.62 217.57 185.497 220.121 188.06 221.212C190.624 222.303 193.763 221.888 197.309 220.056C200.852 218.226 204.732 215.015 208.711 210.651C216.666 201.927 224.939 188.683 231.623 172.983C238.307 157.284 242.122 142.141 242.897 130.36C243.285 124.468 242.91 119.445 241.774 115.622C240.637 111.796 238.76 109.246 236.197 108.154Z" stroke="url(#paint31_radial_78_476)"/>
<path d="M236.197 108.154C233.634 107.063 230.494 107.478 226.948 109.31C223.405 111.14 219.524 114.351 215.545 118.715C207.59 127.439 199.318 140.683 192.634 156.383C185.949 172.082 182.135 187.225 181.36 199.006C180.972 204.898 181.347 209.921 182.483 213.744C183.62 217.57 185.497 220.121 188.06 221.212C190.624 222.303 193.763 221.888 197.309 220.056C200.852 218.226 204.732 215.015 208.711 210.651C216.666 201.927 224.939 188.683 231.623 172.983C238.307 157.284 242.122 142.141 242.897 130.36C243.285 124.468 242.91 119.445 241.774 115.622C240.637 111.796 238.76 109.246 236.197 108.154Z" stroke="url(#paint32_radial_78_476)"/>
<path d="M207.048 99.9032C209.804 100.298 212.277 102.281 214.369 105.689C216.459 109.093 218.127 113.855 219.285 119.654C221.6 131.248 221.858 146.877 219.491 163.783C217.125 180.689 212.589 195.63 207.184 206.117C204.48 211.362 201.571 215.468 198.629 218.151C195.684 220.836 192.764 222.046 190.008 221.651C187.252 221.256 184.778 219.273 182.686 215.865C180.596 212.461 178.928 207.699 177.77 201.9C175.455 190.307 175.198 174.678 177.564 157.772C179.93 140.866 184.466 125.924 189.872 115.437C192.576 110.192 195.484 106.086 198.426 103.404C201.371 100.718 204.292 99.508 207.048 99.9032Z" fill="url(#paint33_linear_78_476)"/>
<path d="M207.048 99.9032C209.804 100.298 212.277 102.281 214.369 105.689C216.459 109.093 218.127 113.855 219.285 119.654C221.6 131.248 221.858 146.877 219.491 163.783C217.125 180.689 212.589 195.63 207.184 206.117C204.48 211.362 201.571 215.468 198.629 218.151C195.684 220.836 192.764 222.046 190.008 221.651C187.252 221.256 184.778 219.273 182.686 215.865C180.596 212.461 178.928 207.699 177.77 201.9C175.455 190.307 175.198 174.678 177.564 157.772C179.93 140.866 184.466 125.924 189.872 115.437C192.576 110.192 195.484 106.086 198.426 103.404C201.371 100.718 204.292 99.508 207.048 99.9032Z" stroke="url(#paint34_radial_78_476)"/>
<path d="M207.048 99.9032C209.804 100.298 212.277 102.281 214.369 105.689C216.459 109.093 218.127 113.855 219.285 119.654C221.6 131.248 221.858 146.877 219.491 163.783C217.125 180.689 212.589 195.63 207.184 206.117C204.48 211.362 201.571 215.468 198.629 218.151C195.684 220.836 192.764 222.046 190.008 221.651C187.252 221.256 184.778 219.273 182.686 215.865C180.596 212.461 178.928 207.699 177.77 201.9C175.455 190.307 175.198 174.678 177.564 157.772C179.93 140.866 184.466 125.924 189.872 115.437C192.576 110.192 195.484 106.086 198.426 103.404C201.371 100.718 204.292 99.508 207.048 99.9032Z" stroke="url(#paint35_radial_78_476)"/>
<path d="M262.413 123.55C260.218 121.837 257.075 121.429 253.168 122.283C249.266 123.135 244.678 125.233 239.695 128.418C229.733 134.784 218.288 145.431 207.741 158.854C197.194 172.277 189.567 185.902 185.754 197.067C183.847 202.651 182.903 207.593 183.008 211.574C183.113 215.558 184.265 218.501 186.46 220.214C188.655 221.927 191.799 222.336 195.706 221.483C199.608 220.63 204.196 218.532 209.179 215.347C219.141 208.981 230.586 198.335 241.133 184.912C251.68 171.489 259.307 157.863 263.12 146.698C265.027 141.114 265.971 136.172 265.866 132.192C265.761 128.207 264.609 125.263 262.413 123.55Z" fill="url(#paint36_linear_78_476)"/>
<path d="M262.413 123.55C260.218 121.837 257.075 121.429 253.168 122.283C249.266 123.135 244.678 125.233 239.695 128.418C229.733 134.784 218.288 145.431 207.741 158.854C197.194 172.277 189.567 185.902 185.754 197.067C183.847 202.651 182.903 207.593 183.008 211.574C183.113 215.558 184.265 218.501 186.46 220.214C188.655 221.927 191.799 222.336 195.706 221.483C199.608 220.63 204.196 218.532 209.179 215.347C219.141 208.981 230.586 198.335 241.133 184.912C251.68 171.489 259.307 157.863 263.12 146.698C265.027 141.114 265.971 136.172 265.866 132.192C265.761 128.207 264.609 125.263 262.413 123.55Z" stroke="url(#paint37_radial_78_476)"/>
<path d="M262.413 123.55C260.218 121.837 257.075 121.429 253.168 122.283C249.266 123.135 244.678 125.233 239.695 128.418C229.733 134.784 218.288 145.431 207.741 158.854C197.194 172.277 189.567 185.902 185.754 197.067C183.847 202.651 182.903 207.593 183.008 211.574C183.113 215.558 184.265 218.501 186.46 220.214C188.655 221.927 191.799 222.336 195.706 221.483C199.608 220.63 204.196 218.532 209.179 215.347C219.141 208.981 230.586 198.335 241.133 184.912C251.68 171.489 259.307 157.863 263.12 146.698C265.027 141.114 265.971 136.172 265.866 132.192C265.761 128.207 264.609 125.263 262.413 123.55Z" stroke="url(#paint38_radial_78_476)"/>
<path d="M64.1556 170.407C63.0641 172.97 63.479 176.109 65.311 179.656C67.1411 183.199 70.3526 187.079 74.7161 191.058C83.44 199.013 96.6847 207.286 112.384 213.97C128.084 220.654 143.226 224.469 155.007 225.244C160.9 225.632 165.923 225.257 169.745 224.121C173.571 222.983 176.122 221.107 177.213 218.543C178.305 215.98 177.89 212.841 176.058 209.295C174.228 205.752 171.016 201.871 166.653 197.892C157.929 189.937 144.684 181.665 128.985 174.981C113.285 168.296 98.1424 164.482 86.3616 163.707C80.469 163.319 75.446 163.694 71.6236 164.83C67.7974 165.967 65.2471 167.843 64.1556 170.407Z" fill="url(#paint39_linear_78_476)"/>
<path d="M64.1556 170.407C63.0641 172.97 63.479 176.109 65.311 179.656C67.1411 183.199 70.3526 187.079 74.7161 191.058C83.44 199.013 96.6847 207.286 112.384 213.97C128.084 220.654 143.226 224.469 155.007 225.244C160.9 225.632 165.923 225.257 169.745 224.121C173.571 222.983 176.122 221.107 177.213 218.543C178.305 215.98 177.89 212.841 176.058 209.295C174.228 205.752 171.016 201.871 166.653 197.892C157.929 189.937 144.684 181.665 128.985 174.981C113.285 168.296 98.1424 164.482 86.3616 163.707C80.469 163.319 75.446 163.694 71.6236 164.83C67.7974 165.967 65.2471 167.843 64.1556 170.407Z" stroke="url(#paint40_radial_78_476)"/>
<path d="M64.1556 170.407C63.0641 172.97 63.479 176.109 65.311 179.656C67.1411 183.199 70.3526 187.079 74.7161 191.058C83.44 199.013 96.6847 207.286 112.384 213.97C128.084 220.654 143.226 224.469 155.007 225.244C160.9 225.632 165.923 225.257 169.745 224.121C173.571 222.983 176.122 221.107 177.213 218.543C178.305 215.98 177.89 212.841 176.058 209.295C174.228 205.752 171.016 201.871 166.653 197.892C157.929 189.937 144.684 181.665 128.985 174.981C113.285 168.296 98.1424 164.482 86.3616 163.707C80.469 163.319 75.446 163.694 71.6236 164.83C67.7974 165.967 65.2471 167.843 64.1556 170.407Z" stroke="url(#paint41_radial_78_476)"/>
<path d="M55.9049 199.556C56.3001 196.8 58.2832 194.327 61.6908 192.234C65.0949 190.144 69.8565 188.477 75.6555 187.319C87.2493 185.004 102.878 184.746 119.784 187.112C136.69 189.478 151.632 194.015 162.118 199.42C167.364 202.124 171.47 205.033 174.152 207.974C176.838 210.919 178.048 213.839 177.653 216.596C177.258 219.352 175.275 221.826 171.867 223.918C168.463 226.008 163.701 227.675 157.902 228.833C146.308 231.149 130.68 231.406 113.774 229.04C96.8679 226.674 81.9261 222.138 71.4391 216.732C66.1937 214.028 62.088 211.12 59.4053 208.178C56.7197 205.233 55.5097 202.312 55.9049 199.556Z" fill="url(#paint42_linear_78_476)"/>
<path d="M55.9049 199.556C56.3001 196.8 58.2832 194.327 61.6908 192.234C65.0949 190.144 69.8565 188.477 75.6555 187.319C87.2493 185.004 102.878 184.746 119.784 187.112C136.69 189.478 151.632 194.015 162.118 199.42C167.364 202.124 171.47 205.033 174.152 207.974C176.838 210.919 178.048 213.839 177.653 216.596C177.258 219.352 175.275 221.826 171.867 223.918C168.463 226.008 163.701 227.675 157.902 228.833C146.308 231.149 130.68 231.406 113.774 229.04C96.8679 226.674 81.9261 222.138 71.4391 216.732C66.1937 214.028 62.088 211.12 59.4053 208.178C56.7197 205.233 55.5097 202.312 55.9049 199.556Z" stroke="url(#paint43_radial_78_476)"/>
<path d="M55.9049 199.556C56.3001 196.8 58.2832 194.327 61.6908 192.234C65.0949 190.144 69.8565 188.477 75.6555 187.319C87.2493 185.004 102.878 184.746 119.784 187.112C136.69 189.478 151.632 194.015 162.118 199.42C167.364 202.124 171.47 205.033 174.152 207.974C176.838 210.919 178.048 213.839 177.653 216.596C177.258 219.352 175.275 221.826 171.867 223.918C168.463 226.008 163.701 227.675 157.902 228.833C146.308 231.149 130.68 231.406 113.774 229.04C96.8679 226.674 81.9261 222.138 71.4391 216.732C66.1937 214.028 62.088 211.12 59.4053 208.178C56.7197 205.233 55.5097 202.312 55.9049 199.556Z" stroke="url(#paint44_radial_78_476)"/>
<path d="M79.5516 144.19C77.8387 146.385 77.4304 149.529 78.284 153.435C79.1366 157.338 81.2349 161.926 84.4192 166.909C90.7857 176.871 101.432 188.316 114.855 198.863C128.278 209.41 141.903 217.036 153.068 220.849C158.653 222.757 163.595 223.7 167.575 223.595C171.559 223.49 174.503 222.339 176.216 220.144C177.929 217.948 178.338 214.804 177.484 210.898C176.631 206.995 174.533 202.407 171.349 197.424C164.982 187.462 154.336 176.018 140.914 165.471C127.491 154.924 113.865 147.297 102.7 143.484C97.1152 141.577 92.1731 140.633 88.193 140.738C84.2086 140.843 81.2647 141.995 79.5516 144.19Z" fill="url(#paint45_linear_78_476)"/>
<path d="M79.5516 144.19C77.8387 146.385 77.4304 149.529 78.284 153.435C79.1366 157.338 81.2349 161.926 84.4192 166.909C90.7857 176.871 101.432 188.316 114.855 198.863C128.278 209.41 141.903 217.036 153.068 220.849C158.653 222.757 163.595 223.7 167.575 223.595C171.559 223.49 174.503 222.339 176.216 220.144C177.929 217.948 178.338 214.804 177.484 210.898C176.631 206.995 174.533 202.407 171.349 197.424C164.982 187.462 154.336 176.018 140.914 165.471C127.491 154.924 113.865 147.297 102.7 143.484C97.1152 141.577 92.1731 140.633 88.193 140.738C84.2086 140.843 81.2647 141.995 79.5516 144.19Z" stroke="url(#paint46_radial_78_476)"/>
<path d="M79.5516 144.19C77.8387 146.385 77.4304 149.529 78.284 153.435C79.1366 157.338 81.2349 161.926 84.4192 166.909C90.7857 176.871 101.432 188.316 114.855 198.863C128.278 209.41 141.903 217.036 153.068 220.849C158.653 222.757 163.595 223.7 167.575 223.595C171.559 223.49 174.503 222.339 176.216 220.144C177.929 217.948 178.338 214.804 177.484 210.898C176.631 206.995 174.533 202.407 171.349 197.424C164.982 187.462 154.336 176.018 140.914 165.471C127.491 154.924 113.865 147.297 102.7 143.484C97.1152 141.577 92.1731 140.633 88.193 140.738C84.2086 140.843 81.2647 141.995 79.5516 144.19Z" stroke="url(#paint47_radial_78_476)"/>
<path d="M121.948 107.323C124.512 106.232 127.651 106.647 131.198 108.479C134.741 110.309 138.621 113.52 142.6 117.884C150.555 126.607 158.827 139.852 165.511 155.552C172.196 171.251 176.01 186.394 176.785 198.175C177.173 204.067 176.799 209.09 175.663 212.912C174.525 216.739 172.648 219.289 170.085 220.381C167.521 221.472 164.383 221.057 160.836 219.225C157.293 217.395 153.413 214.184 149.434 209.82C141.479 201.096 133.207 187.851 126.522 172.152C119.838 156.453 116.024 141.31 115.248 129.529C114.861 123.636 115.235 118.613 116.371 114.791C117.509 110.965 119.385 108.415 121.948 107.323Z" fill="url(#paint48_linear_78_476)"/>
<path d="M121.948 107.323C124.512 106.232 127.651 106.647 131.198 108.479C134.741 110.309 138.621 113.52 142.6 117.884C150.555 126.607 158.827 139.852 165.511 155.552C172.196 171.251 176.01 186.394 176.785 198.175C177.173 204.067 176.799 209.09 175.663 212.912C174.525 216.739 172.648 219.289 170.085 220.381C167.521 221.472 164.383 221.057 160.836 219.225C157.293 217.395 153.413 214.184 149.434 209.82C141.479 201.096 133.207 187.851 126.522 172.152C119.838 156.453 116.024 141.31 115.248 129.529C114.861 123.636 115.235 118.613 116.371 114.791C117.509 110.965 119.385 108.415 121.948 107.323Z" stroke="url(#paint49_radial_78_476)"/>
<path d="M121.948 107.323C124.512 106.232 127.651 106.647 131.198 108.479C134.741 110.309 138.621 113.52 142.6 117.884C150.555 126.607 158.827 139.852 165.511 155.552C172.196 171.251 176.01 186.394 176.785 198.175C177.173 204.067 176.799 209.09 175.663 212.912C174.525 216.739 172.648 219.289 170.085 220.381C167.521 221.472 164.383 221.057 160.836 219.225C157.293 217.395 153.413 214.184 149.434 209.82C141.479 201.096 133.207 187.851 126.522 172.152C119.838 156.453 116.024 141.31 115.248 129.529C114.861 123.636 115.235 118.613 116.371 114.791C117.509 110.965 119.385 108.415 121.948 107.323Z" stroke="url(#paint50_radial_78_476)"/>
<path d="M151.097 99.0721C148.341 99.4674 145.868 101.45 143.776 104.858C141.686 108.262 140.019 113.024 138.861 118.823C136.545 130.417 136.288 146.045 138.654 162.952C141.02 179.858 145.556 194.799 150.962 205.286C153.666 210.531 156.574 214.637 159.516 217.319C162.461 220.005 165.381 221.215 168.137 220.82C170.894 220.425 173.367 218.442 175.46 215.034C177.55 211.63 179.217 206.868 180.375 201.069C182.69 189.476 182.948 173.847 180.582 156.941C178.216 140.035 173.68 125.093 168.274 114.606C165.57 109.361 162.662 105.255 159.72 102.573C156.774 99.8869 153.854 98.677 151.097 99.0721Z" fill="url(#paint51_linear_78_476)"/>
<path d="M151.097 99.0721C148.341 99.4674 145.868 101.45 143.776 104.858C141.686 108.262 140.019 113.024 138.861 118.823C136.545 130.417 136.288 146.045 138.654 162.952C141.02 179.858 145.556 194.799 150.962 205.286C153.666 210.531 156.574 214.637 159.516 217.319C162.461 220.005 165.381 221.215 168.137 220.82C170.894 220.425 173.367 218.442 175.46 215.034C177.55 211.63 179.217 206.868 180.375 201.069C182.69 189.476 182.948 173.847 180.582 156.941C178.216 140.035 173.68 125.093 168.274 114.606C165.57 109.361 162.662 105.255 159.72 102.573C156.774 99.8869 153.854 98.677 151.097 99.0721Z" stroke="url(#paint52_radial_78_476)"/>
<path d="M151.097 99.0721C148.341 99.4674 145.868 101.45 143.776 104.858C141.686 108.262 140.019 113.024 138.861 118.823C136.545 130.417 136.288 146.045 138.654 162.952C141.02 179.858 145.556 194.799 150.962 205.286C153.666 210.531 156.574 214.637 159.516 217.319C162.461 220.005 165.381 221.215 168.137 220.82C170.894 220.425 173.367 218.442 175.46 215.034C177.55 211.63 179.217 206.868 180.375 201.069C182.69 189.476 182.948 173.847 180.582 156.941C178.216 140.035 173.68 125.093 168.274 114.606C165.57 109.361 162.662 105.255 159.72 102.573C156.774 99.8869 153.854 98.677 151.097 99.0721Z" stroke="url(#paint53_radial_78_476)"/>
<path d="M95.7339 122.718C97.9292 121.005 101.073 120.597 104.979 121.45C108.882 122.303 113.47 124.401 118.453 127.585C128.415 133.952 139.86 144.598 150.407 158.021C160.954 171.444 168.58 185.069 172.393 196.234C174.3 201.819 175.244 206.761 175.139 210.741C175.034 214.725 173.883 217.669 171.687 219.382C169.492 221.095 166.348 221.504 162.442 220.65C158.539 219.798 153.951 217.699 148.968 214.515C139.006 208.149 127.562 197.503 117.015 184.08C106.468 170.657 98.8405 157.031 95.0274 145.866C93.1202 140.281 92.1764 135.339 92.2815 131.359C92.3867 127.375 93.5387 124.431 95.7339 122.718Z" fill="url(#paint54_linear_78_476)"/>
<path d="M95.7339 122.718C97.9292 121.005 101.073 120.597 104.979 121.45C108.882 122.303 113.47 124.401 118.453 127.585C128.415 133.952 139.86 144.598 150.407 158.021C160.954 171.444 168.58 185.069 172.393 196.234C174.3 201.819 175.244 206.761 175.139 210.741C175.034 214.725 173.883 217.669 171.687 219.382C169.492 221.095 166.348 221.504 162.442 220.65C158.539 219.798 153.951 217.699 148.968 214.515C139.006 208.149 127.562 197.503 117.015 184.08C106.468 170.657 98.8405 157.031 95.0274 145.866C93.1202 140.281 92.1764 135.339 92.2815 131.359C92.3867 127.375 93.5387 124.431 95.7339 122.718Z" stroke="url(#paint55_radial_78_476)"/>
<path d="M95.7339 122.718C97.9292 121.005 101.073 120.597 104.979 121.45C108.882 122.303 113.47 124.401 118.453 127.585C128.415 133.952 139.86 144.598 150.407 158.021C160.954 171.444 168.58 185.069 172.393 196.234C174.3 201.819 175.244 206.761 175.139 210.741C175.034 214.725 173.883 217.669 171.687 219.382C169.492 221.095 166.348 221.504 162.442 220.65C158.539 219.798 153.951 217.699 148.968 214.515C139.006 208.149 127.562 197.503 117.015 184.08C106.468 170.657 98.8405 157.031 95.0274 145.866C93.1202 140.281 92.1764 135.339 92.2815 131.359C92.3867 127.375 93.5387 124.431 95.7339 122.718Z" stroke="url(#paint56_radial_78_476)"/>
<path d="M296.492 169.112C297.618 171.66 297.245 174.805 295.461 178.376C293.678 181.943 290.519 185.866 286.209 189.903C277.593 197.974 264.46 206.423 248.852 213.318C233.243 220.212 218.153 224.229 206.384 225.162C200.497 225.629 195.469 225.321 191.632 224.237C187.791 223.15 185.215 221.308 184.089 218.76C182.964 216.211 183.337 213.067 185.121 209.496C186.904 205.929 190.063 202.006 194.373 197.969C202.989 189.898 216.122 181.449 231.73 174.555C247.339 167.66 262.429 163.643 274.198 162.71C280.085 162.244 285.113 162.551 288.95 163.636C292.791 164.722 295.366 166.563 296.492 169.112Z" fill="url(#paint57_linear_78_476)"/>
<path d="M296.492 169.112C297.618 171.66 297.245 174.805 295.461 178.376C293.678 181.943 290.519 185.866 286.209 189.903C277.593 197.974 264.46 206.423 248.852 213.318C233.243 220.212 218.153 224.229 206.384 225.162C200.497 225.629 195.469 225.321 191.632 224.237C187.791 223.15 185.215 221.308 184.089 218.76C182.964 216.211 183.337 213.067 185.121 209.496C186.904 205.929 190.063 202.006 194.373 197.969C202.989 189.898 216.122 181.449 231.73 174.555C247.339 167.66 262.429 163.643 274.198 162.71C280.085 162.244 285.113 162.551 288.95 163.636C292.791 164.722 295.366 166.563 296.492 169.112Z" stroke="url(#paint58_radial_78_476)"/>
<path d="M296.492 169.112C297.618 171.66 297.245 174.805 295.461 178.376C293.678 181.943 290.519 185.866 286.209 189.903C277.593 197.974 264.46 206.423 248.852 213.318C233.243 220.212 218.153 224.229 206.384 225.162C200.497 225.629 195.469 225.321 191.632 224.237C187.791 223.15 185.215 221.308 184.089 218.76C182.964 216.211 183.337 213.067 185.121 209.496C186.904 205.929 190.063 202.006 194.373 197.969C202.989 189.898 216.122 181.449 231.73 174.555C247.339 167.66 262.429 163.643 274.198 162.71C280.085 162.244 285.113 162.551 288.95 163.636C292.791 164.722 295.366 166.563 296.492 169.112Z" stroke="url(#paint59_radial_78_476)"/>
<path d="M305.133 198.148C304.701 195.397 302.685 192.951 299.249 190.904C295.818 188.86 291.034 187.257 285.22 186.177C273.596 184.017 257.965 183.969 241.092 186.561C224.219 189.154 209.341 193.89 198.927 199.436C193.718 202.21 189.652 205.173 187.009 208.15C184.363 211.131 183.192 214.067 183.624 216.818C184.056 219.569 186.072 222.015 189.508 224.062C192.94 226.106 197.723 227.709 203.537 228.79C215.161 230.949 230.791 230.997 247.664 228.405C264.537 225.812 279.417 221.076 289.83 215.531C295.039 212.757 299.105 209.793 301.748 206.816C304.394 203.835 305.565 200.898 305.133 198.148Z" fill="url(#paint60_linear_78_476)"/>
<path d="M305.133 198.148C304.701 195.397 302.685 192.951 299.249 190.904C295.818 188.86 291.034 187.257 285.22 186.177C273.596 184.017 257.965 183.969 241.092 186.561C224.219 189.154 209.341 193.89 198.927 199.436C193.718 202.21 189.652 205.173 187.009 208.15C184.363 211.131 183.192 214.067 183.624 216.818C184.056 219.569 186.072 222.015 189.508 224.062C192.94 226.106 197.723 227.709 203.537 228.79C215.161 230.949 230.791 230.997 247.664 228.405C264.537 225.812 279.417 221.076 289.83 215.531C295.039 212.757 299.105 209.793 301.748 206.816C304.394 203.835 305.565 200.898 305.133 198.148Z" stroke="url(#paint61_radial_78_476)"/>
<path d="M305.133 198.148C304.701 195.397 302.685 192.951 299.249 190.904C295.818 188.86 291.034 187.257 285.22 186.177C273.596 184.017 257.965 183.969 241.092 186.561C224.219 189.154 209.341 193.89 198.927 199.436C193.718 202.21 189.652 205.173 187.009 208.15C184.363 211.131 183.192 214.067 183.624 216.818C184.056 219.569 186.072 222.015 189.508 224.062C192.94 226.106 197.723 227.709 203.537 228.79C215.161 230.949 230.791 230.997 247.664 228.405C264.537 225.812 279.417 221.076 289.83 215.531C295.039 212.757 299.105 209.793 301.748 206.816C304.394 203.835 305.565 200.898 305.133 198.148Z" stroke="url(#paint62_radial_78_476)"/>
<path d="M280.747 143.106C282.489 145.278 282.94 148.416 282.138 152.333C281.338 156.247 279.302 160.863 276.184 165.888C269.952 175.934 259.46 187.521 246.179 198.247C232.899 208.973 219.377 216.781 208.265 220.744C202.706 222.726 197.777 223.736 193.796 223.684C189.811 223.632 186.852 222.52 185.11 220.348C183.367 218.176 182.916 215.038 183.717 211.12C184.518 207.207 186.554 202.591 189.672 197.566C195.904 187.519 206.395 175.933 219.676 165.207C232.956 154.481 246.478 146.672 257.591 142.71C263.15 140.728 268.079 139.718 272.06 139.77C276.046 139.821 279.005 140.934 280.747 143.106Z" fill="url(#paint63_linear_78_476)"/>
<path d="M280.747 143.106C282.489 145.278 282.94 148.416 282.138 152.333C281.338 156.247 279.302 160.863 276.184 165.888C269.952 175.934 259.46 187.521 246.179 198.247C232.899 208.973 219.377 216.781 208.265 220.744C202.706 222.726 197.777 223.736 193.796 223.684C189.811 223.632 186.852 222.52 185.11 220.348C183.367 218.176 182.916 215.038 183.717 211.12C184.518 207.207 186.554 202.591 189.672 197.566C195.904 187.519 206.395 175.933 219.676 165.207C232.956 154.481 246.478 146.672 257.591 142.71C263.15 140.728 268.079 139.718 272.06 139.77C276.046 139.821 279.005 140.934 280.747 143.106Z" stroke="url(#paint64_radial_78_476)"/>
<path d="M280.747 143.106C282.489 145.278 282.94 148.416 282.138 152.333C281.338 156.247 279.302 160.863 276.184 165.888C269.952 175.934 259.46 187.521 246.179 198.247C232.899 208.973 219.377 216.781 208.265 220.744C202.706 222.726 197.777 223.736 193.796 223.684C189.811 223.632 186.852 222.52 185.11 220.348C183.367 218.176 182.916 215.038 183.717 211.12C184.518 207.207 186.554 202.591 189.672 197.566C195.904 187.519 206.395 175.933 219.676 165.207C232.956 154.481 246.478 146.672 257.591 142.71C263.15 140.728 268.079 139.718 272.06 139.77C276.046 139.821 279.005 140.934 280.747 143.106Z" stroke="url(#paint65_radial_78_476)"/>
<path d="M114.806 77.435C113.873 77.435 113.138 77.2133 112.601 76.77C112.065 76.3267 111.796 75.7433 111.796 75.02C111.796 74.3667 112.018 73.8417 112.461 73.445C112.928 73.0717 113.441 72.885 114.001 72.885C114.585 72.885 115.063 72.99 115.436 73.2C115.81 73.41 116.136 73.7133 116.416 74.11L116.626 74.39C117.163 75.0433 117.665 75.0317 118.131 74.355C118.435 73.9583 118.726 73.4683 119.006 72.885C119.31 72.3017 119.636 71.5317 119.986 70.575L113.336 54.685C113.173 54.2417 112.986 53.9033 112.776 53.67C112.566 53.4133 112.251 53.2033 111.831 53.04L111.236 52.83V52.2H119.881V52.83L119.146 53.04C118.633 53.2033 118.353 53.46 118.306 53.81C118.283 54.1367 118.365 54.5683 118.551 55.105L122.121 64.415L125.551 55.035C125.738 54.5217 125.808 54.09 125.761 53.74C125.715 53.39 125.423 53.1567 124.886 53.04L124.116 52.83V52.2H129.331V52.83L128.561 53.075C128.048 53.215 127.675 53.425 127.441 53.705C127.231 53.9617 127.033 54.3467 126.846 54.86L121.246 69.91C120.313 72.4767 119.356 74.3667 118.376 75.58C117.42 76.8167 116.23 77.435 114.806 77.435ZM138.352 69.49C136.626 69.49 135.109 69.1283 133.802 68.405C132.519 67.6817 131.516 66.655 130.792 65.325C130.092 63.995 129.742 62.4083 129.742 60.565C129.742 58.7217 130.116 57.135 130.862 55.805C131.632 54.475 132.659 53.46 133.942 52.76C135.249 52.0367 136.719 51.675 138.352 51.675C139.986 51.675 141.444 52.0367 142.727 52.76C144.034 53.46 145.061 54.475 145.807 55.805C146.577 57.1117 146.962 58.6983 146.962 60.565C146.962 62.4083 146.601 64.0067 145.877 65.36C145.177 66.69 144.186 67.7167 142.902 68.44C141.619 69.14 140.102 69.49 138.352 69.49ZM138.352 68.51C139.192 68.51 139.869 68.2883 140.382 67.845C140.919 67.3783 141.304 66.5733 141.537 65.43C141.771 64.2867 141.887 62.6883 141.887 60.635C141.887 58.5583 141.771 56.9483 141.537 55.805C141.304 54.6383 140.919 53.8333 140.382 53.39C139.869 52.9233 139.192 52.69 138.352 52.69C137.512 52.69 136.836 52.9233 136.322 53.39C135.809 53.8333 135.424 54.6383 135.167 55.805C134.934 56.9483 134.817 58.5583 134.817 60.635C134.817 62.6883 134.934 64.2867 135.167 65.43C135.424 66.5733 135.809 67.3783 136.322 67.845C136.836 68.2883 137.512 68.51 138.352 68.51ZM156.132 63.015C154.592 63.015 153.274 62.7583 152.177 62.245V63.505C152.177 64.205 152.527 64.625 153.227 64.765L159.457 65.92C160.647 66.1533 161.697 66.445 162.607 66.795C163.517 67.1217 164.229 67.6 164.742 68.23C165.255 68.8367 165.512 69.665 165.512 70.715C165.512 71.835 165.139 72.8733 164.392 73.83C163.669 74.81 162.584 75.5917 161.137 76.175C159.714 76.7817 157.929 77.085 155.782 77.085C153.939 77.085 152.469 76.8867 151.372 76.49C150.299 76.1167 149.529 75.6267 149.062 75.02C148.595 74.4133 148.362 73.76 148.362 73.06C148.362 72.22 148.642 71.38 149.202 70.54C149.785 69.7 150.532 69 151.442 68.44C150.019 67.9033 149.307 67.0517 149.307 65.885C149.307 65.4417 149.412 65.0333 149.622 64.66C149.832 64.2867 150.089 63.9133 150.392 63.54L151.652 61.965C149.972 60.985 149.132 59.4567 149.132 57.38C149.132 55.6767 149.727 54.3 150.917 53.25C152.13 52.2 153.869 51.675 156.132 51.675C158.395 51.675 160.145 52.2 161.382 53.25C162.129 53.1333 162.829 52.9467 163.482 52.69C164.135 52.4333 164.742 52.0833 165.302 51.64L165.792 51.99V53.95H162.012C162.759 54.8833 163.132 56.0267 163.132 57.38C163.132 59.0367 162.525 60.39 161.312 61.44C160.122 62.49 158.395 63.015 156.132 63.015ZM156.062 62.07C157.042 62.07 157.754 61.6967 158.197 60.95C158.664 60.18 158.897 58.955 158.897 57.275C158.897 55.6183 158.675 54.4283 158.232 53.705C157.789 52.9817 157.1 52.62 156.167 52.62C155.234 52.62 154.534 52.9933 154.067 53.74C153.624 54.4633 153.402 55.665 153.402 57.345C153.402 59.025 153.612 60.2383 154.032 60.985C154.452 61.7083 155.129 62.07 156.062 62.07ZM151.092 72.045C151.092 73.3283 151.5 74.285 152.317 74.915C153.134 75.5683 154.429 75.895 156.202 75.895C158.162 75.895 159.609 75.5683 160.542 74.915C161.499 74.285 161.977 73.445 161.977 72.395C161.977 71.7417 161.732 71.2283 161.242 70.855C160.775 70.4817 159.982 70.19 158.862 69.98L152.597 68.755C152.504 68.7317 152.41 68.7083 152.317 68.685C151.967 69.1517 151.675 69.6883 151.442 70.295C151.209 70.9017 151.092 71.485 151.092 72.045ZM171.489 69.49C170.159 69.49 169.027 69.1167 168.094 68.37C167.184 67.6 166.729 66.5033 166.729 65.08C166.729 63.96 167.265 62.9333 168.339 62C169.435 61.0433 171.15 60.3433 173.484 59.9C173.88 59.8067 174.335 59.725 174.849 59.655C175.385 59.5617 175.91 59.4683 176.424 59.375V56.89C176.424 55.3033 176.225 54.2067 175.829 53.6C175.432 52.9933 174.802 52.69 173.939 52.69H173.834C173.297 52.69 172.865 52.865 172.539 53.215C172.235 53.5417 172.037 54.09 171.944 54.86L171.839 55.315C171.769 56.2483 171.524 56.9367 171.104 57.38C170.684 57.8 170.159 58.01 169.529 58.01C168.945 58.01 168.455 57.835 168.059 57.485C167.685 57.1117 167.499 56.6333 167.499 56.05C167.499 55.0933 167.825 54.2883 168.479 53.635C169.132 52.9817 169.995 52.4917 171.069 52.165C172.165 51.8383 173.344 51.675 174.604 51.675C176.68 51.675 178.267 52.1767 179.364 53.18C180.46 54.1833 181.009 55.8167 181.009 58.08V65.885C181.009 66.8883 181.487 67.39 182.444 67.39H183.249L183.599 67.775C183.179 68.3117 182.712 68.72 182.199 69C181.685 69.3033 180.985 69.455 180.099 69.455C179.095 69.455 178.29 69.2217 177.684 68.755C177.1 68.265 176.715 67.6233 176.529 66.83C175.782 67.6233 175.047 68.265 174.324 68.755C173.6 69.245 172.655 69.49 171.489 69.49ZM173.519 67.25C173.985 67.25 174.429 67.145 174.849 66.935C175.269 66.725 175.794 66.375 176.424 65.885V60.285C175.817 60.3783 175.199 60.495 174.569 60.635C173.565 60.8683 172.749 61.3 172.119 61.93C171.512 62.56 171.209 63.4117 171.209 64.485C171.209 65.4183 171.419 66.1183 171.839 66.585C172.282 67.0283 172.842 67.25 173.519 67.25Z" fill="#3C4748"/>
<path d="M191.444 69.105L185.284 54.3C185.027 53.6467 184.572 53.2267 183.919 53.04L183.184 52.865V52.2H192.039V52.865L191.129 53.075C190.382 53.2617 190.16 53.74 190.464 54.51L194.139 64.275L197.569 54.58C197.685 54.1833 197.709 53.8683 197.639 53.635C197.592 53.3783 197.37 53.2033 196.974 53.11L195.959 52.865V52.2H201.279V52.865L200.124 53.145C199.447 53.3083 198.992 53.7283 198.759 54.405L193.474 69.105H191.444ZM206.26 49.75C205.49 49.75 204.837 49.505 204.3 49.015C203.763 48.525 203.495 47.9067 203.495 47.16C203.495 46.39 203.763 45.7717 204.3 45.305C204.837 44.815 205.49 44.57 206.26 44.57C207.03 44.57 207.683 44.815 208.22 45.305C208.757 45.7717 209.025 46.39 209.025 47.16C209.025 47.9067 208.757 48.525 208.22 49.015C207.683 49.505 207.03 49.75 206.26 49.75ZM202.235 69V68.335L202.76 68.195C203.227 68.055 203.542 67.845 203.705 67.565C203.868 67.285 203.962 66.9117 203.985 66.445V60.005C203.985 59.2817 203.985 58.6167 203.985 58.01C203.985 57.38 203.973 56.7383 203.95 56.085C203.95 55.6183 203.857 55.2567 203.67 55C203.507 54.72 203.192 54.5333 202.725 54.44L202.235 54.335V53.705L208.36 51.675L208.78 52.06L208.675 57.03V66.48C208.675 66.9467 208.757 67.32 208.92 67.6C209.107 67.88 209.422 68.09 209.865 68.23L210.25 68.335V69H202.235ZM217.614 69.455L211.874 69V68.335L212.224 68.265C213.134 68.055 213.589 67.4717 213.589 66.515V48.315C213.589 47.8483 213.496 47.4867 213.309 47.23C213.146 46.9733 212.831 46.7867 212.364 46.67L211.909 46.565V45.935L217.894 44.43L218.349 44.745L218.209 49.68V53.355C219.866 52.235 221.651 51.675 223.564 51.675C225.524 51.675 227.146 52.3983 228.429 53.845C229.713 55.2683 230.354 57.4733 230.354 60.46C230.354 62.4433 230.028 64.1117 229.374 65.465C228.721 66.795 227.846 67.7983 226.749 68.475C225.653 69.1517 224.439 69.49 223.109 69.49C222.223 69.49 221.336 69.3733 220.449 69.14C219.586 68.9067 218.816 68.545 218.139 68.055L217.614 69.455ZM221.464 67.95C222.234 67.95 222.911 67.7283 223.494 67.285C224.078 66.8417 224.533 66.0833 224.859 65.01C225.186 63.9367 225.349 62.4667 225.349 60.6C225.349 58.7333 225.198 57.275 224.894 56.225C224.591 55.175 224.148 54.44 223.564 54.02C223.004 53.6 222.328 53.39 221.534 53.39C220.484 53.39 219.411 53.6933 218.314 54.3V67.075C219.271 67.6583 220.321 67.95 221.464 67.95ZM240.891 51.675C242.361 51.675 243.621 51.9783 244.671 52.585C245.721 53.1917 246.526 54.0317 247.086 55.105C247.67 56.155 247.961 57.3683 247.961 58.745C247.961 59.0483 247.95 59.34 247.926 59.62C247.903 59.8767 247.856 60.1217 247.786 60.355H237.251C237.275 62.7583 237.718 64.485 238.581 65.535C239.468 66.585 240.751 67.11 242.431 67.11C243.598 67.11 244.543 66.9233 245.266 66.55C245.99 66.1533 246.655 65.605 247.261 64.905L247.821 65.43C247.121 66.7133 246.165 67.7167 244.951 68.44C243.761 69.14 242.338 69.49 240.681 69.49C239.025 69.49 237.566 69.14 236.306 68.44C235.046 67.74 234.055 66.7367 233.331 65.43C232.631 64.1 232.281 62.5133 232.281 60.67C232.281 58.7567 232.69 57.135 233.506 55.805C234.346 54.475 235.42 53.46 236.726 52.76C238.056 52.0367 239.445 51.675 240.891 51.675ZM240.716 52.69C240.04 52.69 239.445 52.8883 238.931 53.285C238.441 53.6583 238.045 54.335 237.741 55.315C237.461 56.2717 237.298 57.625 237.251 59.375H243.516C243.773 57.0183 243.68 55.315 243.236 54.265C242.793 53.215 241.953 52.69 240.716 52.69Z" fill="#F7E1D7"/>
<defs>
<linearGradient id="paint0_linear_78_476" x1="136.508" y1="247.323" x2="117.871" y2="206.536" gradientUnits="userSpaceOnUse">
<stop stop-color="#4A5759"/>
<stop offset="1" stop-color="#30383A"/>
</linearGradient>
<radialGradient id="paint1_radial_78_476" cx="0" cy="0" r="1" gradientTransform="matrix(27.8369 -20.7968 16.543 22.2841 87.7607 259.764)" gradientUnits="userSpaceOnUse">
<stop stop-color="white"/>
<stop offset="1" stop-color="white" stop-opacity="0"/>
</radialGradient>
<radialGradient id="paint2_radial_78_476" cx="0" cy="0" r="1" gradientTransform="matrix(-25.22 19.5774 -16.9215 -21.9458 168.718 198.251)" gradientUnits="userSpaceOnUse">
<stop stop-color="white"/>
<stop offset="1" stop-color="white" stop-opacity="0"/>
</radialGradient>
<linearGradient id="paint3_linear_78_476" x1="121.35" y1="193.452" x2="126.403" y2="237.986" gradientUnits="userSpaceOnUse">
<stop stop-color="#4A5759"/>
<stop offset="1" stop-color="#30383A"/>
</linearGradient>
<radialGradient id="paint4_radial_78_476" cx="0" cy="0" r="1" gradientTransform="matrix(34.6154 3.46151 2.60415 -27.5989 73.1677 207.916)" gradientUnits="userSpaceOnUse">
<stop stop-color="white"/>
<stop offset="1" stop-color="white" stop-opacity="0"/>
</radialGradient>
<radialGradient id="paint5_radial_78_476" cx="0" cy="0" r="1" gradientTransform="matrix(-31.7429 -3.76583 -3.10361 27.5042 174.373 218.865)" gradientUnits="userSpaceOnUse">
<stop stop-color="white"/>
<stop offset="1" stop-color="white" stop-opacity="0"/>
</radialGradient>
<linearGradient id="paint6_linear_78_476" x1="147.944" y1="255.742" x2="119.344" y2="221.234" gradientUnits="userSpaceOnUse">
<stop stop-color="#4A5759"/>
<stop offset="1" stop-color="#30383A"/>
</linearGradient>
<radialGradient id="paint7_radial_78_476" cx="0" cy="0" r="1" gradientTransform="matrix(21.4959 -27.352 21.6999 17.251 104.124 280.45)" gradientUnits="userSpaceOnUse">
<stop stop-color="white"/>
<stop offset="1" stop-color="white" stop-opacity="0"/>
</radialGradient>
<radialGradient id="paint8_radial_78_476" cx="0" cy="0" r="1" gradientTransform="matrix(-19.2856 25.4922 -21.9778 -16.8253 166.374 199.906)" gradientUnits="userSpaceOnUse">
<stop stop-color="white"/>
<stop offset="1" stop-color="white" stop-opacity="0"/>
</radialGradient>
<linearGradient id="paint9_linear_78_476" x1="182.165" y1="259.448" x2="140.976" y2="241.78" gradientUnits="userSpaceOnUse">
<stop stop-color="#4A5759"/>
<stop offset="1" stop-color="#30383A"/>
</linearGradient>
<radialGradient id="paint10_radial_78_476" cx="0" cy="0" r="1" gradientTransform="matrix(6.65646 -34.1452 27.1792 5.45633 154.436 301.421)" gradientUnits="userSpaceOnUse">
<stop stop-color="white"/>
<stop offset="1" stop-color="white" stop-opacity="0"/>
</radialGradient>
<radialGradient id="paint11_radial_78_476" cx="0" cy="0" r="1" gradientTransform="matrix(-5.53758 31.4821 -27.2325 -4.95077 173.103 201.351)" gradientUnits="userSpaceOnUse">
<stop stop-color="white"/>
<stop offset="1" stop-color="white" stop-opacity="0"/>
</radialGradient>
<linearGradient id="paint12_linear_78_476" x1="178.947" y1="260.278" x2="220.136" y2="242.611" gradientUnits="userSpaceOnUse">
<stop stop-color="#4A5759"/>
<stop offset="1" stop-color="#30383A"/>
</linearGradient>
<radialGradient id="paint13_radial_78_476" cx="0" cy="0" r="1" gradientTransform="matrix(-6.65646 -34.1452 -27.1792 5.45633 206.676 302.252)" gradientUnits="userSpaceOnUse">
<stop stop-color="white"/>
<stop offset="1" stop-color="white" stop-opacity="0"/>
</radialGradient>
<radialGradient id="paint14_radial_78_476" cx="0" cy="0" r="1" gradientTransform="matrix(5.53758 31.4821 27.2325 -4.95077 188.009 202.182)" gradientUnits="userSpaceOnUse">
<stop stop-color="white"/>
<stop offset="1" stop-color="white" stop-opacity="0"/>
</radialGradient>
<linearGradient id="paint15_linear_78_476" x1="223.189" y1="247.322" x2="241.826" y2="206.535" gradientUnits="userSpaceOnUse">
<stop stop-color="#4A5759"/>
<stop offset="1" stop-color="#30383A"/>
</linearGradient>
<radialGradient id="paint16_radial_78_476" cx="0" cy="0" r="1" gradientTransform="matrix(-27.8369 -20.7968 -16.543 22.2841 271.936 259.764)" gradientUnits="userSpaceOnUse">
<stop stop-color="white"/>
<stop offset="1" stop-color="white" stop-opacity="0"/>
</radialGradient>
<radialGradient id="paint17_radial_78_476" cx="0" cy="0" r="1" gradientTransform="matrix(25.22 19.5774 16.9215 -21.9458 190.979 198.25)" gradientUnits="userSpaceOnUse">
<stop stop-color="white"/>
<stop offset="1" stop-color="white" stop-opacity="0"/>
</radialGradient>
<linearGradient id="paint18_linear_78_476" x1="238.348" y1="193.452" x2="233.294" y2="237.985" gradientUnits="userSpaceOnUse">
<stop stop-color="#4A5759"/>
<stop offset="1" stop-color="#30383A"/>
</linearGradient>
<radialGradient id="paint19_radial_78_476" cx="0" cy="0" r="1" gradientTransform="matrix(-34.6154 3.46151 -2.60415 -27.5989 286.53 207.916)" gradientUnits="userSpaceOnUse">
<stop stop-color="white"/>
<stop offset="1" stop-color="white" stop-opacity="0"/>
</radialGradient>
<radialGradient id="paint20_radial_78_476" cx="0" cy="0" r="1" gradientTransform="matrix(31.7429 -3.76583 3.10361 27.5042 185.324 218.865)" gradientUnits="userSpaceOnUse">
<stop stop-color="white"/>
<stop offset="1" stop-color="white" stop-opacity="0"/>
</radialGradient>
<linearGradient id="paint21_linear_78_476" x1="211.753" y1="255.741" x2="240.353" y2="221.233" gradientUnits="userSpaceOnUse">
<stop stop-color="#4A5759"/>
<stop offset="1" stop-color="#30383A"/>
</linearGradient>
<radialGradient id="paint22_radial_78_476" cx="0" cy="0" r="1" gradientTransform="matrix(-21.4959 -27.352 -21.6999 17.251 255.573 280.45)" gradientUnits="userSpaceOnUse">
<stop stop-color="white"/>
<stop offset="1" stop-color="white" stop-opacity="0"/>
</radialGradient>
<radialGradient id="paint23_radial_78_476" cx="0" cy="0" r="1" gradientTransform="matrix(19.2856 25.4922 21.9778 -16.8253 193.323 199.906)" gradientUnits="userSpaceOnUse">
<stop stop-color="white"/>
<stop offset="1" stop-color="white" stop-opacity="0"/>
</radialGradient>
<linearGradient id="paint24_linear_78_476" x1="177.531" y1="259.447" x2="218.721" y2="241.78" gradientUnits="userSpaceOnUse">
<stop stop-color="#4A5759"/>
<stop offset="1" stop-color="#30383A"/>
</linearGradient>
<radialGradient id="paint25_radial_78_476" cx="0" cy="0" r="1" gradientTransform="matrix(-6.65646 -34.1452 -27.1792 5.45633 205.261 301.421)" gradientUnits="userSpaceOnUse">
<stop stop-color="white"/>
<stop offset="1" stop-color="white" stop-opacity="0"/>
</radialGradient>
<radialGradient id="paint26_radial_78_476" cx="0" cy="0" r="1" gradientTransform="matrix(5.53758 31.4821 27.2325 -4.95077 186.593 201.351)" gradientUnits="userSpaceOnUse">
<stop stop-color="white"/>
<stop offset="1" stop-color="white" stop-opacity="0"/>
</radialGradient>
<linearGradient id="paint27_linear_78_476" x1="180.75" y1="260.278" x2="139.561" y2="242.61" gradientUnits="userSpaceOnUse">
<stop stop-color="#4A5759"/>
<stop offset="1" stop-color="#30383A"/>
</linearGradient>
<radialGradient id="paint28_radial_78_476" cx="0" cy="0" r="1" gradientTransform="matrix(6.65646 -34.1452 27.1792 5.45633 153.021 302.251)" gradientUnits="userSpaceOnUse">
<stop stop-color="white"/>
<stop offset="1" stop-color="white" stop-opacity="0"/>
</radialGradient>
<radialGradient id="paint29_radial_78_476" cx="0" cy="0" r="1" gradientTransform="matrix(-5.53758 31.4821 -27.2325 -4.95077 171.688 202.182)" gradientUnits="userSpaceOnUse">
<stop stop-color="white"/>
<stop offset="1" stop-color="white" stop-opacity="0"/>
</radialGradient>
<linearGradient id="paint30_linear_78_476" x1="230.312" y1="177.338" x2="189.525" y2="158.701" gradientUnits="userSpaceOnUse">
<stop stop-color="#69505C"/>
<stop offset="1" stop-color="#F7E1D7"/>
</linearGradient>
<radialGradient id="paint31_radial_78_476" cx="0" cy="0" r="1" gradientTransform="matrix(-20.7968 27.8369 22.2841 16.543 242.754 128.591)" gradientUnits="userSpaceOnUse">
<stop stop-color="white"/>
<stop offset="1" stop-color="white" stop-opacity="0"/>
</radialGradient>
<radialGradient id="paint32_radial_78_476" cx="0" cy="0" r="1" gradientTransform="matrix(19.5774 -25.22 -21.9458 -16.9214 181.24 209.548)" gradientUnits="userSpaceOnUse">
<stop stop-color="white"/>
<stop offset="1" stop-color="white" stop-opacity="0"/>
</radialGradient>
<linearGradient id="paint33_linear_78_476" x1="176.442" y1="162.18" x2="220.975" y2="167.233" gradientUnits="userSpaceOnUse">
<stop stop-color="#69505C"/>
<stop offset="1" stop-color="#F7E1D7"/>
</linearGradient>
<radialGradient id="paint34_radial_78_476" cx="0" cy="0" r="1" gradientTransform="matrix(3.46151 34.6154 -27.5989 2.60414 190.905 113.998)" gradientUnits="userSpaceOnUse">
<stop stop-color="white"/>
<stop offset="1" stop-color="white" stop-opacity="0"/>
</radialGradient>
<radialGradient id="paint35_radial_78_476" cx="0" cy="0" r="1" gradientTransform="matrix(-3.76584 -31.7428 27.5043 -3.10361 201.855 215.203)" gradientUnits="userSpaceOnUse">
<stop stop-color="white"/>
<stop offset="1" stop-color="white" stop-opacity="0"/>
</radialGradient>
<linearGradient id="paint36_linear_78_476" x1="238.733" y1="188.775" x2="204.225" y2="160.176" gradientUnits="userSpaceOnUse">
<stop stop-color="#69505C"/>
<stop offset="1" stop-color="#F7E1D7"/>
</linearGradient>
<radialGradient id="paint37_radial_78_476" cx="0" cy="0" r="1" gradientTransform="matrix(-27.352 21.4959 17.251 21.6999 263.441 144.955)" gradientUnits="userSpaceOnUse">
<stop stop-color="white"/>
<stop offset="1" stop-color="white" stop-opacity="0"/>
</radialGradient>
<radialGradient id="paint38_radial_78_476" cx="0" cy="0" r="1" gradientTransform="matrix(25.4922 -19.2856 -16.8253 -21.9778 182.897 207.206)" gradientUnits="userSpaceOnUse">
<stop stop-color="white"/>
<stop offset="1" stop-color="white" stop-opacity="0"/>
</radialGradient>
<linearGradient id="paint39_linear_78_476" x1="133.34" y1="176.292" x2="114.703" y2="217.078" gradientUnits="userSpaceOnUse">
<stop stop-color="#69505C"/>
<stop offset="1" stop-color="#F7E1D7"/>
</linearGradient>
<radialGradient id="paint40_radial_78_476" cx="0" cy="0" r="1" gradientTransform="matrix(27.8369 20.7968 16.543 -22.2841 84.5927 163.85)" gradientUnits="userSpaceOnUse">
<stop stop-color="white"/>
<stop offset="1" stop-color="white" stop-opacity="0"/>
</radialGradient>
<radialGradient id="paint41_radial_78_476" cx="0" cy="0" r="1" gradientTransform="matrix(-25.22 -19.5774 -16.9215 21.9458 165.55 225.364)" gradientUnits="userSpaceOnUse">
<stop stop-color="white"/>
<stop offset="1" stop-color="white" stop-opacity="0"/>
</radialGradient>
<linearGradient id="paint42_linear_78_476" x1="118.181" y1="230.162" x2="123.235" y2="185.629" gradientUnits="userSpaceOnUse">
<stop stop-color="#69505C"/>
<stop offset="1" stop-color="#F7E1D7"/>
</linearGradient>
<radialGradient id="paint43_radial_78_476" cx="0" cy="0" r="1" gradientTransform="matrix(34.6154 -3.46151 2.60415 27.5989 69.9995 215.698)" gradientUnits="userSpaceOnUse">
<stop stop-color="white"/>
<stop offset="1" stop-color="white" stop-opacity="0"/>
</radialGradient>
<radialGradient id="paint44_radial_78_476" cx="0" cy="0" r="1" gradientTransform="matrix(-31.7429 3.76583 -3.10361 -27.5042 171.205 204.749)" gradientUnits="userSpaceOnUse">
<stop stop-color="white"/>
<stop offset="1" stop-color="white" stop-opacity="0"/>
</radialGradient>
<linearGradient id="paint45_linear_78_476" x1="144.777" y1="167.871" x2="116.177" y2="202.379" gradientUnits="userSpaceOnUse">
<stop stop-color="#69505C"/>
<stop offset="1" stop-color="#F7E1D7"/>
</linearGradient>
<radialGradient id="paint46_radial_78_476" cx="0" cy="0" r="1" gradientTransform="matrix(21.4959 27.352 21.6999 -17.251 100.957 143.162)" gradientUnits="userSpaceOnUse">
<stop stop-color="white"/>
<stop offset="1" stop-color="white" stop-opacity="0"/>
</radialGradient>
<radialGradient id="paint47_radial_78_476" cx="0" cy="0" r="1" gradientTransform="matrix(-19.2856 -25.4922 -21.9778 16.8253 163.207 223.706)" gradientUnits="userSpaceOnUse">
<stop stop-color="white"/>
<stop offset="1" stop-color="white" stop-opacity="0"/>
</radialGradient>
<linearGradient id="paint48_linear_78_476" x1="127.833" y1="176.507" x2="168.62" y2="157.87" gradientUnits="userSpaceOnUse">
<stop stop-color="#69505C"/>
<stop offset="1" stop-color="#F7E1D7"/>
</linearGradient>
<radialGradient id="paint49_radial_78_476" cx="0" cy="0" r="1" gradientTransform="matrix(20.7968 27.8369 -22.2841 16.543 115.391 127.76)" gradientUnits="userSpaceOnUse">
<stop stop-color="white"/>
<stop offset="1" stop-color="white" stop-opacity="0"/>
</radialGradient>
<radialGradient id="paint50_radial_78_476" cx="0" cy="0" r="1" gradientTransform="matrix(-19.5774 -25.22 21.9458 -16.9214 176.905 208.717)" gradientUnits="userSpaceOnUse">
<stop stop-color="white"/>
<stop offset="1" stop-color="white" stop-opacity="0"/>
</radialGradient>
<linearGradient id="paint51_linear_78_476" x1="181.704" y1="161.349" x2="137.17" y2="166.402" gradientUnits="userSpaceOnUse">
<stop stop-color="#69505C"/>
<stop offset="1" stop-color="#F7E1D7"/>
</linearGradient>
<radialGradient id="paint52_radial_78_476" cx="0" cy="0" r="1" gradientTransform="matrix(-3.46151 34.6154 27.5989 2.60414 167.24 113.167)" gradientUnits="userSpaceOnUse">
<stop stop-color="white"/>
<stop offset="1" stop-color="white" stop-opacity="0"/>
</radialGradient>
<radialGradient id="paint53_radial_78_476" cx="0" cy="0" r="1" gradientTransform="matrix(3.76583 -31.7428 -27.5043 -3.10361 156.291 214.372)" gradientUnits="userSpaceOnUse">
<stop stop-color="white"/>
<stop offset="1" stop-color="white" stop-opacity="0"/>
</radialGradient>
<linearGradient id="paint54_linear_78_476" x1="119.414" y1="187.943" x2="153.922" y2="159.343" gradientUnits="userSpaceOnUse">
<stop stop-color="#69505C"/>
<stop offset="1" stop-color="#F7E1D7"/>
</linearGradient>
<radialGradient id="paint55_radial_78_476" cx="0" cy="0" r="1" gradientTransform="matrix(27.352 21.4959 -17.251 21.6999 94.7061 144.123)" gradientUnits="userSpaceOnUse">
<stop stop-color="white"/>
<stop offset="1" stop-color="white" stop-opacity="0"/>
</radialGradient>
<radialGradient id="paint56_radial_78_476" cx="0" cy="0" r="1" gradientTransform="matrix(-25.4922 -19.2856 16.8253 -21.9778 175.25 206.373)" gradientUnits="userSpaceOnUse">
<stop stop-color="white"/>
<stop offset="1" stop-color="white" stop-opacity="0"/>
</radialGradient>
<linearGradient id="paint57_linear_78_476" x1="227.393" y1="175.924" x2="246.575" y2="216.457" gradientUnits="userSpaceOnUse">
<stop stop-color="#69505C"/>
<stop offset="1" stop-color="#F7E1D7"/>
</linearGradient>
<radialGradient id="paint58_radial_78_476" cx="0" cy="0" r="1" gradientTransform="matrix(-27.5556 21.168 -16.8402 -22.0604 275.969 162.83)" gradientUnits="userSpaceOnUse">
<stop stop-color="white"/>
<stop offset="1" stop-color="white" stop-opacity="0"/>
</radialGradient>
<radialGradient id="paint59_radial_78_476" cx="0" cy="0" r="1" gradientTransform="matrix(24.9554 -19.9137 17.2141 21.717 195.844 225.423)" gradientUnits="userSpaceOnUse">
<stop stop-color="white"/>
<stop offset="1" stop-color="white" stop-opacity="0"/>
</radialGradient>
<linearGradient id="paint60_linear_78_476" x1="243.272" y1="229.586" x2="237.622" y2="185.124" gradientUnits="userSpaceOnUse">
<stop stop-color="#69505C"/>
<stop offset="1" stop-color="#F7E1D7"/>
</linearGradient>
<radialGradient id="paint61_radial_78_476" cx="0" cy="0" r="1" gradientTransform="matrix(-34.6587 -2.99722 -2.23398 27.6313 291.256 214.478)" gradientUnits="userSpaceOnUse">
<stop stop-color="white"/>
<stop offset="1" stop-color="white" stop-opacity="0"/>
</radialGradient>
<radialGradient id="paint62_radial_78_476" cx="0" cy="0" r="1" gradientTransform="matrix(31.7905 3.34001 2.73467 -27.5434 189.913 204.886)" gradientUnits="userSpaceOnUse">
<stop stop-color="white"/>
<stop offset="1" stop-color="white" stop-opacity="0"/>
</radialGradient>
<linearGradient id="paint63_linear_78_476" x1="215.845" y1="167.659" x2="244.905" y2="201.78" gradientUnits="userSpaceOnUse">
<stop stop-color="#69505C"/>
<stop offset="1" stop-color="#F7E1D7"/>
</linearGradient>
<radialGradient id="paint64_radial_78_476" cx="0" cy="0" r="1" gradientTransform="matrix(-21.1274 27.6377 -21.9292 -16.9586 259.33 142.365)" gradientUnits="userSpaceOnUse">
<stop stop-color="white"/>
<stop offset="1" stop-color="white" stop-opacity="0"/>
</radialGradient>
<radialGradient id="paint65_radial_78_476" cx="0" cy="0" r="1" gradientTransform="matrix(18.9422 -25.7484 22.2014 16.5292 198.165 223.736)" gradientUnits="userSpaceOnUse">
<stop stop-color="white"/>
<stop offset="1" stop-color="white" stop-opacity="0"/>
</radialGradient>
</defs>
</svg>
