<svg width="57" height="45" viewBox="0 0 57 45" fill="none" xmlns="http://www.w3.org/2000/svg">
<path fill-rule="evenodd" clip-rule="evenodd" d="M24.7763 15.5594L25.1279 15.9165L18.8019 22.3041C17.9863 23.1393 17.5287 24.2678 17.5287 25.4441C17.5287 26.6205 17.9862 27.7489 18.8019 28.5842L20.805 30.6001V30.6006C21.4499 31.2639 22.2857 31.7027 23.1921 31.8531C24.0979 32.004 25.0279 31.8591 25.8479 31.4392L29.362 29.6548L37.691 38.1122L32.8236 43.0366C31.5833 44.315 29.8823 45.0242 28.1147 44.9994C26.3814 44.9705 24.729 44.2528 23.5107 43.0008L0 18.4316V0L12.7919 12.989C14.0106 14.2201 15.6586 14.9128 17.3781 14.9158H23.1769H23.1764C23.7728 14.9048 24.3486 15.1359 24.7757 15.5582L24.7763 15.5594Z" fill="#4A5759"/>
<path fill-rule="evenodd" clip-rule="evenodd" d="M56.2283 0.0356445V18.5922L40.6427 34.9891L31.8571 26.068C31.5388 25.5645 31.0557 25.192 30.4926 25.0157C29.9301 24.8394 29.3239 24.8708 28.7819 25.1044L23.8969 27.5487L21.9116 25.443L31.6287 15.5588C32.0382 15.1539 32.5856 14.9239 33.1575 14.9164H38.9563C40.6822 14.9219 42.3389 14.2286 43.5597 12.9896L56.2283 0.0356445Z" fill="#4A5759"/>
</svg>
