<svg width="57" height="45" viewBox="0 0 57 45" fill="none" xmlns="http://www.w3.org/2000/svg">
<path d="M30.1701 0V7.94823H28.3074H26.1636L26.1641 0H30.1701Z" fill="#4A5759"/>
<path d="M51.5726 7.1589L47.8823 13.6719C46.7493 12.9297 45.5757 12.2526 44.3682 11.6447L48.0584 5.11377L51.5726 7.1589Z" fill="#4A5759"/>
<path d="M11.9666 11.7344C10.7586 12.3419 9.58539 13.0191 8.45248 13.7616L4.76221 7.15903L8.27632 5.11377L11.9666 11.7344Z" fill="#4A5759"/>
<path fill-rule="evenodd" clip-rule="evenodd" d="M35.1432 28.636C35.1432 30.5396 34.4026 32.365 33.0846 33.7112C31.7663 35.0568 29.9786 35.8131 28.1148 35.8131C26.2505 35.8131 24.4628 35.0569 23.1445 33.7112C21.8266 32.365 21.0859 30.5396 21.0859 28.636C21.0859 26.7329 21.8265 24.9076 23.1445 23.5614C24.4628 22.2158 26.2505 21.4595 28.1148 21.4595C29.9786 21.4595 31.7663 22.2157 33.0846 23.5614C34.4025 24.9076 35.1432 26.7329 35.1432 28.636Z" fill="#4A5759"/>
<path fill-rule="evenodd" clip-rule="evenodd" d="M28.3079 11.986C22.5901 11.9815 16.9704 13.5024 12.0055 16.3975C7.04004 19.2927 2.90202 23.4623 0 28.4929C2.90202 33.5235 7.04004 37.6927 12.0055 40.5878C16.9704 43.483 22.5901 45.0039 28.3079 44.9994C33.9796 45.035 39.5577 43.524 44.466 40.6218C49.3745 37.7201 53.4351 33.533 56.2288 28.4929C53.4351 23.4524 49.3745 19.2651 44.466 16.3635C39.5574 13.4619 33.9794 11.9505 28.3079 11.986ZM28.1147 39.886C25.1926 39.886 22.39 38.7012 20.3242 36.5913C18.2579 34.4814 17.097 31.6204 17.097 28.6365C17.097 25.6532 18.2579 22.7916 20.3242 20.6818C22.39 18.5724 25.1924 17.387 28.1147 17.387C31.0364 17.387 33.8389 18.5724 35.9047 20.6818C37.971 22.7916 39.1319 25.6532 39.1319 28.6365C39.1319 31.6203 37.971 34.4814 35.9047 36.5913C33.8389 38.7012 31.0364 39.886 28.1147 39.886Z" fill="#4A5759"/>
</svg>
