<svg width="51" height="45" viewBox="0 0 51 45" fill="none" xmlns="http://www.w3.org/2000/svg">
<path d="M49.9415 42.9639L47.661 36.1052C47.5354 35.71 47.571 35.2971 47.7688 34.9201C49.4924 31.5804 50.1927 27.6485 49.4568 23.4827C48.3257 17.1086 43.6574 11.8296 37.6063 9.80078C39.1686 13.5713 39.6351 17.7549 38.8631 21.9202C37.283 30.3591 30.5137 37.0562 22.0391 38.5832C20.9437 38.7806 19.8309 38.8706 18.7354 38.9062C21.3032 41.6891 24.7503 43.6645 28.5928 44.3465C32.7225 45.0824 36.637 44.4004 39.9763 42.7124C40.3354 42.5329 40.7662 42.479 41.1435 42.6224L48.0205 44.9207C49.1877 45.3158 50.337 44.1664 49.9419 42.9637L49.9415 42.9639Z" fill="#4A5759"/>
<path d="M14.7316 0.320225C7.58546 1.64907 1.8581 7.44844 0.564827 14.6122C-0.17112 18.7597 0.528741 22.7098 2.25281 26.0497C2.45017 26.4088 2.48625 26.8396 2.36062 27.2347L0.0801684 34.0935C-0.314976 35.2963 0.816115 36.4456 2.03719 36.0505L8.91424 33.7522C9.30939 33.6266 9.72236 33.6623 10.0814 33.8422C13.403 35.5302 17.3352 36.2304 21.4649 35.4763C28.611 34.2012 34.3931 28.4737 35.7389 21.3451C38.0728 8.77626 27.2817 -2.01459 14.7306 0.31989L14.7316 0.320225ZM19.2742 23.4472H10.3866C9.50681 23.4472 8.80655 22.7291 8.80655 21.8671C8.80655 20.9873 9.52468 20.2871 10.3866 20.2871H19.2747C20.1545 20.2871 20.8548 21.0052 20.8548 21.8671C20.8726 22.7292 20.154 23.4472 19.2742 23.4472ZM25.6304 17.0911H10.3871C9.50727 17.0911 8.807 16.373 8.807 15.511C8.807 14.6312 9.52514 13.9309 10.3871 13.9309H25.6316C26.5114 13.9309 27.2117 14.6491 27.2117 15.511C27.229 16.3908 26.5109 17.0911 25.6311 17.0911H25.6304Z" fill="#4A5759"/>
</svg>
