<svg width="48" height="29" viewBox="0 0 48 29" fill="none" xmlns="http://www.w3.org/2000/svg">
<path d="M47.7677 27.2463C47.9178 26.9256 47.9964 26.5836 47.9999 26.2383V5.37256L29.6643 14.9629L47.7677 27.2463Z" fill="#69505C"/>
<path d="M23.024 15.7982C23.3003 15.976 23.6353 16.0719 23.9798 16.0719C24.3244 16.0719 24.6598 15.976 24.9357 15.7982L47.9988 3.75622V2.76193C47.9988 2.02939 47.6614 1.3267 47.0616 0.808938C46.4614 0.290896 45.6476 0 44.7989 0H3.19994C2.35163 0 1.53751 0.290887 0.937228 0.808938C0.337426 1.32664 0 2.02936 0 2.76193V3.07269L23.024 15.7982Z" fill="#69505C"/>
<path d="M28.2005 15.7288L25.8005 16.9715C25.2757 17.2963 24.6462 17.4704 24.0007 17.4687C23.3191 17.4704 22.655 17.284 22.1048 16.9369L19.841 15.687L1.17712 28.3648C1.74637 28.7719 2.46173 28.9963 3.20082 29.0001H44.7997C45.5389 28.9963 46.2542 28.7719 46.8234 28.3648L28.2005 15.7288Z" fill="#69505C"/>
<path d="M0.00170898 4.71582V26.2376C0.0052816 26.583 0.084277 26.9249 0.233936 27.2456L18.4009 14.9002L0.00170898 4.71582Z" fill="#69505C"/>
</svg>
